<!-- Generated by readme-aura https://github.com/collectioneur/readme-aura -->
<svg width="432" height="66" viewBox="0 0 432 66" xmlns="http://www.w3.org/2000/svg"><defs><clipPath id="satori_bc-id"><path x="0" y="0" width="432" height="66" d="M8,0 h416 a8,8 0 0 1 8,8 v50 a8,8 0 0 1 -8,8 h-416 a8,8 0 0 1 -8,-8 v-50 a8,8 0 0 1 8,-8"/></clipPath></defs><mask id="satori_om-id"><rect x="1" y="1" width="430" height="64" fill="#fff"/><path width="432" height="66" fill="none" stroke="#000" stroke-width="2" d="M2.343,2.343 A8,8 0 0 1 8,0 h416 a8,8 0 0 1 8,8 v50 a8,8 0 0 1 -8,8 h-416 a8,8 0 0 1 -8,-8 v-50 A8,8 0 0 1 2.343,2.343"/></mask><path x="0" y="0" width="432" height="66" fill="#0a0506" d="M8,0 h416 a8,8 0 0 1 8,8 v50 a8,8 0 0 1 -8,8 h-416 a8,8 0 0 1 -8,-8 v-50 a8,8 0 0 1 8,-8"/><path width="432" height="66" clip-path="url(#satori_bc-id)" fill="none" stroke="rgba(255,77,77,0.26)" stroke-width="2" d="M2.343,2.343 A8,8 0 0 1 8,0 h416 a8,8 0 0 1 8,8 v50 a8,8 0 0 1 -8,8 h-416 a8,8 0 0 1 -8,-8 v-50 A8,8 0 0 1 2.343,2.343"/><mask id="satori_om-id-0"><rect x="15" y="14" width="3" height="38" fill="#fff"/></mask><path x="15" y="14" width="3" height="38" fill="#F03242" d="M16.5,14 h0 a1.5,1.5 0 0 1 1.5,1.5 v35 a1.5,1.5 0 0 1 -1.5,1.5 h0 a1.5,1.5 0 0 1 -1.5,-1.5 v-35 a1.5,1.5 0 0 1 1.5,-1.5"/><mask id="satori_om-id-1"><rect x="29" y="17" width="302" height="32" fill="#fff"/></mask><mask id="satori_om-id-1-0"><rect x="29" y="17" width="302" height="16" fill="#fff"/></mask><g  ><path fill="rgba(255,240,240,0.95)" d="M31.8 30L29.9 30L29.9 20.5L33.5 20.5Q34.6 20.5 35.4 21.0Q36.1 21.4 36.5 22.1Q36.9 22.8 36.9 23.7L36.9 23.7Q36.9 24.7 36.5 25.4Q36.1 26.1 35.4 26.5Q34.6 26.9 33.5 26.9L33.5 26.9L31.8 26.9L31.8 30ZM31.8 22.1L31.8 25.3L33.2 25.3Q33.8 25.3 34.2 25.1Q34.6 24.9 34.7 24.6Q34.9 24.2 34.9 23.7Q34.9 23.3 34.7 22.9Q34.6 22.5 34.2 22.3Q33.8 22.1 33.2 22.1L33.2 22.1L31.8 22.1ZM40.1 30L38.2 30L38.2 22.9L40.1 22.9L40.1 24.1L40.2 24.1Q40.3 23.5 40.8 23.1Q41.3 22.8 41.9 22.8L41.9 22.8Q42.0 22.8 42.2 22.8Q42.4 22.8 42.5 22.9L42.5 22.9L42.5 24.6Q42.4 24.5 42.1 24.5Q41.9 24.5 41.7 24.5L41.7 24.5Q41.2 24.5 40.9 24.7Q40.5 24.9 40.3 25.2Q40.1 25.5 40.1 26.0L40.1 26.0L40.1 30ZM46.7 30.1L46.7 30.1Q45.6 30.1 44.9 29.7Q44.1 29.2 43.7 28.4Q43.2 27.6 43.2 26.5L43.2 26.5Q43.2 25.4 43.7 24.6Q44.1 23.7 44.9 23.3Q45.6 22.8 46.7 22.8L46.7 22.8Q47.8 22.8 48.6 23.3Q49.3 23.7 49.8 24.6Q50.2 25.4 50.2 26.5L50.2 26.5Q50.2 27.6 49.8 28.4Q49.3 29.2 48.6 29.7Q47.8 30.1 46.7 30.1ZM46.7 28.6L46.7 28.6Q47.2 28.6 47.6 28.4Q47.9 28.1 48.1 27.6Q48.2 27.1 48.2 26.5L48.2 26.5Q48.2 25.8 48.1 25.4Q47.9 24.9 47.6 24.6Q47.2 24.3 46.7 24.3L46.7 24.3Q46.2 24.3 45.9 24.6Q45.5 24.9 45.3 25.4Q45.2 25.8 45.2 26.5L45.2 26.5Q45.2 27.1 45.3 27.6Q45.5 28.1 45.9 28.4Q46.2 28.6 46.7 28.6ZM51.5 30.3L51.5 22.9L53.4 22.9L53.4 30.4Q53.4 31.2 53.1 31.7Q52.8 32.2 52.2 32.4Q51.6 32.7 50.8 32.7L50.8 32.7L50.4 32.7L50.4 31.2L50.6 31.2Q51.1 31.2 51.3 30.9Q51.5 30.7 51.5 30.3L51.5 30.3ZM52.5 22.0L52.5 22.0Q52.0 22.0 51.7 21.7Q51.4 21.4 51.4 21.0L51.4 21.0Q51.4 20.6 51.7 20.3Q52.0 20.0 52.5 20.0L52.5 20.0Q52.9 20.0 53.2 20.3Q53.5 20.6 53.5 21.0L53.5 21.0Q53.5 21.4 53.2 21.7Q52.9 22.0 52.5 22.0ZM58.2 30.1L58.2 30.1Q57.1 30.1 56.4 29.7Q55.6 29.3 55.1 28.4Q54.7 27.6 54.7 26.5L54.7 26.5Q54.7 25.4 55.1 24.6Q55.6 23.7 56.3 23.3Q57.1 22.8 58.1 22.8L58.1 22.8Q58.8 22.8 59.4 23.0Q60.0 23.3 60.5 23.7Q61.0 24.2 61.2 24.8Q61.5 25.5 61.5 26.4L61.5 26.4L61.5 26.9L56.6 26.9Q56.6 27.5 56.8 27.9L56.8 27.9Q57.0 28.3 57.4 28.5Q57.8 28.7 58.3 28.7L58.3 28.7Q58.6 28.7 58.9 28.6Q59.1 28.5 59.3 28.3Q59.5 28.1 59.6 27.9L59.6 27.9L61.4 28.2Q61.2 28.8 60.8 29.2Q60.3 29.7 59.7 29.9Q59.1 30.1 58.2 30.1ZM56.6 25.8L56.6 25.8L59.6 25.8Q59.6 25.4 59.5 25.1L59.5 25.1Q59.3 24.7 59.0 24.5Q58.6 24.2 58.2 24.2L58.2 24.2Q57.7 24.2 57.3 24.5Q57.0 24.7 56.8 25.1L56.8 25.1Q56.7 25.4 56.6 25.8ZM65.0 22.9L66.3 22.9L66.3 24.4L65.0 24.4L65.0 27.9Q65.0 28.3 65.1 28.4Q65.3 28.6 65.6 28.6L65.6 28.6Q65.7 28.6 65.9 28.6Q66.1 28.5 66.2 28.5L66.2 28.5L66.5 29.9Q66.2 30.0 65.9 30.1Q65.5 30.1 65.3 30.1L65.3 30.1Q64.2 30.1 63.6 29.6Q63.1 29.1 63.1 28.1L63.1 28.1L63.1 24.4L62.1 24.4L62.1 22.9L63.1 22.9L63.1 21.2L65.0 21.2L65.0 22.9ZM70.7 30.1L70.7 30.1Q69.6 30.1 68.9 29.7Q68.1 29.2 67.7 28.4Q67.2 27.6 67.2 26.5L67.2 26.5Q67.2 25.4 67.7 24.6Q68.1 23.7 68.9 23.3Q69.6 22.8 70.7 22.8L70.7 22.8Q71.8 22.8 72.6 23.3Q73.3 23.7 73.8 24.6Q74.2 25.4 74.2 26.5L74.2 26.5Q74.2 27.6 73.8 28.4Q73.3 29.2 72.6 29.7Q71.8 30.1 70.7 30.1ZM70.7 28.6L70.7 28.6Q71.2 28.6 71.6 28.4Q71.9 28.1 72.1 27.6Q72.2 27.1 72.2 26.5L72.2 26.5Q72.2 25.8 72.1 25.4Q71.9 24.9 71.6 24.6Q71.2 24.3 70.7 24.3L70.7 24.3Q70.2 24.3 69.9 24.6Q69.5 24.9 69.3 25.4Q69.2 25.8 69.2 26.5L69.2 26.5Q69.2 27.1 69.3 27.6Q69.5 28.1 69.9 28.4Q70.2 28.6 70.7 28.6ZM77.5 30L75.5 30L75.5 20.5L78.5 20.5L80.1 24.9Q80.1 25.2 80.3 25.7Q80.4 26.2 80.5 26.7L80.5 26.7Q80.7 27.3 80.8 27.8L80.8 27.8Q80.9 27.3 81.0 26.7L81.0 26.7Q81.1 26.2 81.2 25.7Q81.4 25.2 81.5 24.9L81.5 24.9L83.0 20.5L86.0 20.5L86.0 30L84.0 30L84.0 25.5Q84.0 25.2 84.0 24.8Q84.0 24.3 84.0 23.8Q84.1 23.2 84.1 22.7L84.1 22.7Q84.1 22.4 84.1 22.2L84.1 22.2Q84.0 22.5 83.9 22.8L83.9 22.8Q83.8 23.3 83.6 23.8Q83.5 24.4 83.4 24.8Q83.2 25.3 83.1 25.5L83.1 25.5L81.6 30L79.9 30L78.3 25.5Q78.2 25.3 78.1 24.8Q78.0 24.4 77.8 23.9Q77.7 23.3 77.5 22.8L77.5 22.8Q77.5 22.5 77.4 22.3L77.4 22.3Q77.4 22.5 77.4 22.7L77.4 22.7Q77.4 23.2 77.4 23.7Q77.5 24.3 77.5 24.8Q77.5 25.2 77.5 25.5L77.5 25.5L77.5 30ZM89.6 30.1L89.6 30.1Q88.9 30.1 88.4 29.9Q87.8 29.7 87.5 29.2Q87.2 28.7 87.2 28.0L87.2 28.0Q87.2 27.4 87.5 27.0Q87.7 26.6 88.0 26.4Q88.4 26.1 88.9 26.0Q89.4 25.9 89.9 25.8L89.9 25.8Q90.5 25.8 90.9 25.7Q91.3 25.7 91.5 25.5Q91.6 25.4 91.6 25.2L91.6 25.2L91.6 25.2Q91.6 24.9 91.5 24.7Q91.4 24.4 91.1 24.3Q90.9 24.2 90.5 24.2L90.5 24.2Q90.2 24.2 89.9 24.3Q89.6 24.4 89.4 24.6Q89.3 24.8 89.2 25.0L89.2 25.0L87.4 24.8Q87.6 24.1 88.0 23.7Q88.5 23.3 89.1 23.0Q89.7 22.8 90.5 22.8L90.5 22.8Q91.1 22.8 91.6 23.0Q92.2 23.1 92.6 23.4Q93.0 23.7 93.3 24.1Q93.5 24.6 93.5 25.2L93.5 25.2L93.5 30L91.7 30L91.7 29.0L91.7 29.0Q91.5 29.3 91.2 29.6Q90.9 29.8 90.5 30.0Q90.1 30.1 89.6 30.1ZM90.1 28.8L90.1 28.8Q90.6 28.8 90.9 28.6Q91.3 28.4 91.5 28.1Q91.6 27.8 91.6 27.5L91.6 27.5L91.6 26.7Q91.6 26.8 91.4 26.8Q91.2 26.9 91.0 26.9Q90.8 26.9 90.6 27.0Q90.4 27.0 90.2 27.0L90.2 27.0Q89.9 27.1 89.6 27.2Q89.4 27.3 89.2 27.5Q89.1 27.7 89.1 28.0L89.1 28.0Q89.1 28.2 89.2 28.4Q89.3 28.6 89.6 28.7Q89.8 28.8 90.1 28.8ZM98.0 30.1L98.0 30.1Q97.1 30.1 96.5 29.9Q95.8 29.7 95.4 29.2Q95.0 28.7 94.8 28.1L94.8 28.1L96.6 27.8Q96.8 28.2 97.1 28.5Q97.5 28.7 98.0 28.7L98.0 28.7Q98.6 28.7 98.9 28.5Q99.2 28.3 99.2 28.0L99.2 28.0Q99.2 27.7 99.0 27.6Q98.8 27.4 98.3 27.3L98.3 27.3L97.1 27.0Q96.0 26.8 95.5 26.3Q95.0 25.8 95.0 25.0L95.0 25.0Q95.0 24.3 95.4 23.8Q95.8 23.3 96.4 23.1Q97.1 22.8 98.0 22.8L98.0 22.8Q98.8 22.8 99.5 23.0Q100.1 23.3 100.5 23.7Q100.8 24.1 101.0 24.7L101.0 24.7L99.3 25.0Q99.2 24.6 98.9 24.4Q98.6 24.2 98.0 24.2L98.0 24.2Q97.6 24.2 97.3 24.4Q96.9 24.6 96.9 24.9L96.9 24.9Q96.9 25.2 97.1 25.4Q97.3 25.5 97.8 25.6L97.8 25.6L99.1 25.9Q100.2 26.1 100.7 26.6Q101.2 27.0 101.2 27.8L101.2 27.8Q101.2 28.5 100.7 29.0Q100.3 29.6 99.6 29.8Q98.9 30.1 98.0 30.1ZM105.3 30.1L105.3 30.1Q104.4 30.1 103.7 29.9Q103.1 29.7 102.7 29.2Q102.2 28.7 102.1 28.1L102.1 28.1L103.9 27.8Q104.0 28.2 104.4 28.5Q104.7 28.7 105.3 28.7L105.3 28.7Q105.9 28.7 106.2 28.5Q106.5 28.3 106.5 28.0L106.5 28.0Q106.5 27.7 106.3 27.6Q106.0 27.4 105.6 27.3L105.6 27.3L104.4 27.0Q103.3 26.8 102.8 26.3Q102.3 25.8 102.3 25.0L102.3 25.0Q102.3 24.3 102.7 23.8Q103.1 23.3 103.7 23.1Q104.4 22.8 105.3 22.8L105.3 22.8Q106.1 22.8 106.7 23.0Q107.4 23.3 107.7 23.7Q108.1 24.1 108.3 24.7L108.3 24.7L106.6 25.0Q106.5 24.6 106.1 24.4Q105.8 24.2 105.3 24.2L105.3 24.2Q104.8 24.2 104.5 24.4Q104.2 24.6 104.2 24.9L104.2 24.9Q104.2 25.2 104.4 25.4Q104.6 25.5 105.1 25.6L105.1 25.6L106.4 25.9Q107.4 26.1 107.9 26.6Q108.4 27.0 108.4 27.8L108.4 27.8Q108.4 28.5 108.0 29.0Q107.6 29.6 106.9 29.8Q106.2 30.1 105.3 30.1ZM111.7 30.1L111.7 30.1Q111.0 30.1 110.5 29.9Q110.0 29.7 109.7 29.2Q109.3 28.7 109.3 28.0L109.3 28.0Q109.3 27.4 109.6 27.0Q109.8 26.6 110.2 26.4Q110.5 26.1 111.0 26.0Q111.5 25.9 112.0 25.8L112.0 25.8Q112.6 25.8 113.0 25.7Q113.4 25.7 113.6 25.5Q113.7 25.4 113.7 25.2L113.7 25.2L113.7 25.2Q113.7 24.9 113.6 24.7Q113.5 24.4 113.2 24.3Q113.0 24.2 112.6 24.2L112.6 24.2Q112.3 24.2 112.0 24.3Q111.7 24.4 111.5 24.6Q111.4 24.8 111.3 25.0L111.3 25.0L109.5 24.8Q109.7 24.1 110.2 23.7Q110.6 23.3 111.2 23.0Q111.8 22.8 112.6 22.8L112.6 22.8Q113.2 22.8 113.7 23.0Q114.3 23.1 114.7 23.4Q115.1 23.7 115.4 24.1Q115.6 24.6 115.6 25.2L115.6 25.2L115.6 30L113.8 30L113.8 29.0L113.8 29.0Q113.6 29.3 113.3 29.6Q113.0 29.8 112.6 30.0Q112.2 30.1 111.7 30.1ZM112.2 28.8L112.2 28.8Q112.7 28.8 113.0 28.6Q113.4 28.4 113.6 28.1Q113.8 27.8 113.8 27.5L113.8 27.5L113.8 26.7Q113.7 26.8 113.5 26.8Q113.3 26.9 113.1 26.9Q112.9 26.9 112.7 27.0Q112.5 27.0 112.3 27.0L112.3 27.0Q112.0 27.1 111.7 27.2Q111.5 27.3 111.3 27.5Q111.2 27.7 111.2 28.0L111.2 28.0Q111.2 28.2 111.3 28.4Q111.4 28.6 111.7 28.7Q111.9 28.8 112.2 28.8ZM120.4 32.8L120.4 32.8Q119.5 32.8 118.9 32.6Q118.2 32.4 117.8 32.0Q117.4 31.6 117.2 31.1L117.2 31.1L118.9 30.6Q119.0 30.8 119.1 31.0Q119.3 31.2 119.6 31.3Q120.0 31.4 120.4 31.4L120.4 31.4Q121.1 31.4 121.6 31.1Q122.0 30.8 122.0 30.1L122.0 30.1L122.0 28.7L121.8 28.7Q121.7 29.0 121.5 29.3Q121.2 29.6 120.8 29.7Q120.4 29.9 119.9 29.9L119.9 29.9Q119.1 29.9 118.4 29.5Q117.8 29.1 117.4 28.4Q117.0 27.6 117.0 26.4L117.0 26.4Q117.0 25.2 117.4 24.4Q117.8 23.6 118.4 23.2Q119.1 22.8 119.9 22.8L119.9 22.8Q120.5 22.8 120.9 23.0Q121.3 23.2 121.5 23.5Q121.8 23.8 121.9 24.1L121.9 24.1L122.0 24.1L122.0 22.9L123.9 22.9L123.9 29.9Q123.9 30.9 123.4 31.5Q123.0 32.2 122.2 32.5Q121.4 32.8 120.4 32.8ZM120.5 28.5L120.5 28.5Q120.9 28.5 121.3 28.2Q121.6 28.0 121.8 27.5Q122.0 27.1 122.0 26.4L122.0 26.4Q122.0 25.8 121.8 25.3Q121.6 24.9 121.3 24.6Q120.9 24.3 120.5 24.3L120.5 24.3Q120.0 24.3 119.6 24.6Q119.3 24.9 119.1 25.3Q118.9 25.8 118.9 26.4L118.9 26.4Q118.9 27.0 119.1 27.5Q119.3 28.0 119.6 28.2Q120.0 28.5 120.5 28.5ZM128.7 30.1L128.7 30.1Q127.6 30.1 126.8 29.7Q126.0 29.3 125.6 28.4Q125.2 27.6 125.2 26.5L125.2 26.5Q125.2 25.4 125.6 24.6Q126.0 23.7 126.8 23.3Q127.6 22.8 128.6 22.8L128.6 22.8Q129.3 22.8 129.9 23.0Q130.5 23.3 131.0 23.7Q131.4 24.2 131.7 24.8Q131.9 25.5 131.9 26.4L131.9 26.4L131.9 26.9L127.1 26.9Q127.1 27.5 127.3 27.9L127.3 27.9Q127.5 28.3 127.9 28.5Q128.2 28.7 128.7 28.7L128.7 28.7Q129.1 28.7 129.3 28.6Q129.6 28.5 129.8 28.3Q130.0 28.1 130.1 27.9L130.1 27.9L131.8 28.2Q131.6 28.8 131.2 29.2Q130.8 29.7 130.2 29.9Q129.5 30.1 128.7 30.1ZM127.1 25.8L127.1 25.8L130.1 25.8Q130.1 25.4 129.9 25.1L129.9 25.1Q129.8 24.7 129.4 24.5Q129.1 24.2 128.6 24.2L128.6 24.2Q128.1 24.2 127.8 24.5Q127.4 24.7 127.2 25.1L127.2 25.1Q127.1 25.4 127.1 25.8ZM135.1 30L133.2 30L133.2 22.9L135.1 22.9L135.1 24.1L135.1 24.1Q135.3 23.5 135.8 23.1Q136.3 22.8 136.9 22.8L136.9 22.8Q137.0 22.8 137.2 22.8Q137.3 22.8 137.5 22.9L137.5 22.9L137.5 24.6Q137.3 24.5 137.1 24.5Q136.9 24.5 136.6 24.5L136.6 24.5Q136.2 24.5 135.9 24.7Q135.5 24.9 135.3 25.2Q135.1 25.5 135.1 26.0L135.1 26.0L135.1 30Z "/></g><mask id="satori_om-id-1-1"><rect x="29" y="37" width="302" height="12" fill="#fff"/></mask><g  ><path fill="rgba(255,175,175,0.62)" d="M30.8 47L29.9 47L29.9 39.7L34.3 39.7L34.3 40.5L30.8 40.5L30.8 43.0L33.9 43.0L33.9 43.9L30.8 43.9L30.8 47ZM37.5 47.1L37.5 47.1Q37.0 47.1 36.6 46.8Q36.1 46.6 35.9 46.2Q35.7 45.7 35.7 45.0L35.7 45.0L35.7 41.5L36.6 41.5L36.6 44.9Q36.6 45.6 36.9 45.9Q37.2 46.3 37.8 46.3L37.8 46.3Q38.2 46.3 38.5 46.1Q38.8 45.9 39.0 45.6Q39.2 45.3 39.2 44.8L39.2 44.8L39.2 41.5L40.0 41.5L40.0 47L39.2 47L39.2 46.0Q39.0 46.5 38.6 46.8L38.6 46.8Q38.1 47.1 37.5 47.1ZM41.6 39.7L42.5 39.7L42.5 47L41.6 47L41.6 39.7ZM44.0 39.7L44.9 39.7L44.9 47L44.0 47L44.0 39.7ZM46.4 43.5L49.6 43.5L49.6 44.3L46.4 44.3L46.4 43.5ZM52.9 47.1L52.9 47.1Q52.3 47.1 51.9 47.0Q51.5 46.8 51.2 46.5Q50.9 46.1 50.8 45.7L50.8 45.7L51.6 45.5Q51.7 45.9 52.1 46.1Q52.4 46.3 52.9 46.3L52.9 46.3Q53.4 46.3 53.8 46.1Q54.1 45.9 54.1 45.5L54.1 45.5Q54.1 45.2 53.9 45.0Q53.7 44.9 53.3 44.8L53.3 44.8L52.4 44.6Q51.7 44.4 51.3 44.0Q51.0 43.6 51.0 43.1L51.0 43.1Q51.0 42.6 51.2 42.2Q51.5 41.9 51.9 41.7Q52.4 41.5 53.0 41.5L53.0 41.5Q53.5 41.5 53.9 41.6Q54.3 41.8 54.6 42.1Q54.8 42.4 54.9 42.8L54.9 42.8L54.1 43.0Q54.0 42.7 53.8 42.5Q53.5 42.2 53.0 42.2L53.0 42.2Q52.5 42.2 52.2 42.4Q51.8 42.7 51.8 43.0L51.8 43.0Q51.8 43.3 52.1 43.5Q52.3 43.7 52.8 43.8L52.8 43.8L53.6 44.0Q54.3 44.2 54.7 44.5Q55.0 44.9 55.0 45.5L55.0 45.5Q55.0 45.9 54.8 46.3Q54.5 46.7 54.0 46.9Q53.5 47.1 52.9 47.1ZM57.3 41.5L58.5 41.5L58.5 42.3L57.3 42.3L57.3 45.6Q57.3 46.0 57.5 46.1Q57.6 46.3 58.0 46.3L58.0 46.3Q58.1 46.3 58.2 46.3Q58.3 46.2 58.4 46.2L58.4 46.2L58.6 47.0Q58.5 47.0 58.3 47.0Q58.1 47.1 58.0 47.1L58.0 47.1Q57.2 47.1 56.9 46.7Q56.5 46.3 56.5 45.7L56.5 45.7L56.5 42.3L55.6 42.3L55.6 41.5L56.5 41.5L56.5 40.2L57.3 40.2L57.3 41.5ZM61.1 47.1L61.1 47.1Q60.6 47.1 60.2 46.9Q59.7 46.7 59.5 46.4Q59.2 46.0 59.2 45.4L59.2 45.4Q59.2 45.0 59.4 44.7Q59.6 44.4 59.9 44.2Q60.2 44.1 60.6 44.0Q61.0 43.9 61.4 43.8L61.4 43.8Q61.9 43.8 62.2 43.7Q62.5 43.7 62.6 43.6Q62.8 43.5 62.8 43.3L62.8 43.3L62.8 43.3Q62.8 43.0 62.6 42.7Q62.5 42.5 62.3 42.4Q62.0 42.2 61.6 42.2L61.6 42.2Q61.2 42.2 61.0 42.4Q60.7 42.5 60.5 42.7Q60.3 42.9 60.3 43.0L60.3 43.0L59.4 42.8Q59.6 42.3 60.0 42.0Q60.3 41.7 60.8 41.6Q61.2 41.5 61.6 41.5L61.6 41.5Q61.9 41.5 62.2 41.5Q62.6 41.6 62.9 41.8Q63.2 42.0 63.4 42.4Q63.7 42.8 63.7 43.4L63.7 43.4L63.7 47L62.8 47L62.8 46.3L62.7 46.3Q62.6 46.4 62.4 46.7Q62.2 46.9 61.9 47.0Q61.6 47.1 61.1 47.1ZM61.3 46.4L61.3 46.4Q61.7 46.4 62.1 46.2Q62.4 46.0 62.6 45.7Q62.8 45.4 62.8 45.0L62.8 45.0L62.8 44.3Q62.7 44.3 62.5 44.4Q62.4 44.4 62.1 44.5Q61.9 44.5 61.7 44.5Q61.5 44.6 61.3 44.6L61.3 44.6Q61.0 44.6 60.7 44.7Q60.5 44.8 60.3 45.0Q60.1 45.2 60.1 45.5L60.1 45.5Q60.1 45.8 60.3 46.0Q60.4 46.2 60.7 46.3Q60.9 46.4 61.3 46.4ZM67.4 47.1L67.4 47.1Q66.7 47.1 66.1 46.8Q65.6 46.4 65.2 45.8Q64.9 45.1 64.9 44.3L64.9 44.3Q64.9 43.5 65.2 42.8Q65.6 42.2 66.1 41.8Q66.7 41.5 67.4 41.5L67.4 41.5Q67.8 41.5 68.2 41.6Q68.5 41.7 68.8 41.9Q69.1 42.1 69.3 42.3Q69.5 42.6 69.6 43.0L69.6 43.0L68.8 43.2Q68.7 43.0 68.6 42.8Q68.5 42.7 68.3 42.5Q68.1 42.4 67.9 42.3Q67.7 42.3 67.4 42.3L67.4 42.3Q66.9 42.3 66.5 42.5Q66.2 42.8 66.0 43.3Q65.8 43.8 65.8 44.3L65.8 44.3Q65.8 44.8 66.0 45.3Q66.2 45.8 66.5 46.0Q66.9 46.3 67.4 46.3L67.4 46.3Q67.7 46.3 67.9 46.3Q68.2 46.2 68.3 46.1Q68.5 45.9 68.6 45.7Q68.8 45.5 68.8 45.3L68.8 45.3L69.6 45.6Q69.5 45.9 69.3 46.2Q69.1 46.5 68.8 46.7Q68.5 46.9 68.2 47.0Q67.8 47.1 67.4 47.1ZM71.8 47L70.9 47L70.9 39.7L71.8 39.7L71.8 43.9L71.9 43.9L74.2 41.5L75.3 41.5L73.0 43.9L75.5 47L74.4 47L72.4 44.4L71.8 45.0L71.8 47Z M80.7 47.1L80.7 47.1Q80.2 47.1 79.8 46.9Q79.4 46.7 79.1 46.4Q78.9 46.0 78.9 45.4L78.9 45.4Q78.9 45.0 79.1 44.7Q79.2 44.4 79.6 44.2Q79.9 44.1 80.2 44.0Q80.6 43.9 81.0 43.8L81.0 43.8Q81.5 43.8 81.8 43.7Q82.1 43.7 82.3 43.6Q82.4 43.5 82.4 43.3L82.4 43.3L82.4 43.3Q82.4 43.0 82.3 42.7Q82.1 42.5 81.9 42.4Q81.6 42.2 81.3 42.2L81.3 42.2Q80.9 42.2 80.6 42.4Q80.3 42.5 80.1 42.7Q80.0 42.9 79.9 43.0L79.9 43.0L79.0 42.8Q79.2 42.3 79.6 42.0Q80.0 41.7 80.4 41.6Q80.8 41.5 81.2 41.5L81.2 41.5Q81.5 41.5 81.9 41.5Q82.2 41.6 82.5 41.8Q82.9 42.0 83.1 42.4Q83.3 42.8 83.3 43.4L83.3 43.4L83.3 47L82.4 47L82.4 46.3L82.4 46.3Q82.3 46.4 82.1 46.7Q81.9 46.9 81.5 47.0Q81.2 47.1 80.7 47.1ZM80.9 46.4L80.9 46.4Q81.4 46.4 81.7 46.2Q82.1 46.0 82.2 45.7Q82.4 45.4 82.4 45.0L82.4 45.0L82.4 44.3Q82.3 44.3 82.2 44.4Q82.0 44.4 81.8 44.5Q81.5 44.5 81.3 44.5Q81.1 44.6 81.0 44.6L81.0 44.6Q80.6 44.6 80.4 44.7Q80.1 44.8 79.9 45.0Q79.8 45.2 79.8 45.5L79.8 45.5Q79.8 45.8 79.9 46.0Q80.1 46.2 80.3 46.3Q80.6 46.4 80.9 46.4ZM85.7 49.0L84.8 49.0L84.8 41.5L85.7 41.5L85.7 42.4L85.8 42.4Q85.9 42.3 86.0 42.0Q86.2 41.8 86.5 41.6Q86.8 41.5 87.4 41.5L87.4 41.5Q88.0 41.5 88.6 41.8Q89.1 42.2 89.4 42.8Q89.7 43.4 89.7 44.3L89.7 44.3Q89.7 45.2 89.4 45.8Q89.1 46.4 88.6 46.8Q88.0 47.1 87.4 47.1L87.4 47.1Q86.8 47.1 86.5 46.9Q86.2 46.8 86.0 46.5Q85.9 46.3 85.8 46.2L85.8 46.2L85.7 46.2L85.7 49.0ZM87.2 46.3L87.2 46.3Q87.7 46.3 88.1 46.1Q88.4 45.8 88.6 45.3Q88.8 44.8 88.8 44.3L88.8 44.3Q88.8 43.7 88.6 43.3Q88.4 42.8 88.1 42.5Q87.7 42.3 87.2 42.3L87.2 42.3Q86.7 42.3 86.4 42.5Q86.0 42.8 85.9 43.2Q85.7 43.7 85.7 44.3L85.7 44.3Q85.7 44.9 85.9 45.3Q86.0 45.8 86.4 46.1Q86.7 46.3 87.2 46.3ZM91.8 49.0L90.9 49.0L90.9 41.5L91.8 41.5L91.8 42.4L91.9 42.4Q92.0 42.3 92.2 42.0Q92.3 41.8 92.6 41.6Q92.9 41.5 93.5 41.5L93.5 41.5Q94.2 41.5 94.7 41.8Q95.2 42.2 95.5 42.8Q95.8 43.4 95.8 44.3L95.8 44.3Q95.8 45.2 95.5 45.8Q95.2 46.4 94.7 46.8Q94.2 47.1 93.5 47.1L93.5 47.1Q93.0 47.1 92.6 46.9Q92.3 46.8 92.2 46.5Q92.0 46.3 91.9 46.2L91.9 46.2L91.8 46.2L91.8 49.0ZM93.4 46.3L93.4 46.3Q93.9 46.3 94.2 46.1Q94.6 45.8 94.7 45.3Q94.9 44.8 94.9 44.3L94.9 44.3Q94.9 43.7 94.7 43.3Q94.6 42.8 94.2 42.5Q93.9 42.3 93.4 42.3L93.4 42.3Q92.8 42.3 92.5 42.5Q92.2 42.8 92.0 43.2Q91.8 43.7 91.8 44.3L91.8 44.3Q91.8 44.9 92.0 45.3Q92.2 45.8 92.5 46.1Q92.9 46.3 93.4 46.3ZM97.1 39.7L98.0 39.7L98.0 47L97.1 47L97.1 39.7ZM100.4 47L99.5 47L99.5 41.5L100.4 41.5L100.4 47ZM99.9 40.6L99.9 40.6Q99.7 40.6 99.5 40.5Q99.3 40.3 99.3 40.1L99.3 40.1Q99.3 39.8 99.5 39.7Q99.7 39.5 99.9 39.5L99.9 39.5Q100.2 39.5 100.4 39.7Q100.6 39.8 100.6 40.1L100.6 40.1Q100.6 40.3 100.4 40.5Q100.2 40.6 99.9 40.6ZM104.1 47.1L104.1 47.1Q103.4 47.1 102.8 46.8Q102.3 46.4 102.0 45.8Q101.7 45.1 101.7 44.3L101.7 44.3Q101.7 43.5 102.0 42.8Q102.3 42.2 102.8 41.8Q103.4 41.5 104.1 41.5L104.1 41.5Q104.5 41.5 104.9 41.6Q105.2 41.7 105.5 41.9Q105.8 42.1 106.0 42.3Q106.2 42.6 106.3 43.0L106.3 43.0L105.5 43.2Q105.4 43.0 105.3 42.8Q105.2 42.7 105.0 42.5Q104.9 42.4 104.6 42.3Q104.4 42.3 104.1 42.3L104.1 42.3Q103.6 42.3 103.2 42.5Q102.9 42.8 102.7 43.3Q102.5 43.8 102.5 44.3L102.5 44.3Q102.5 44.8 102.7 45.3Q102.9 45.8 103.2 46.0Q103.6 46.3 104.1 46.3L104.1 46.3Q104.4 46.3 104.6 46.3Q104.9 46.2 105.0 46.1Q105.2 45.9 105.3 45.7Q105.5 45.5 105.5 45.3L105.5 45.3L106.4 45.6Q106.3 45.9 106.0 46.2Q105.8 46.5 105.5 46.7Q105.3 46.9 104.9 47.0Q104.5 47.1 104.1 47.1ZM109.2 47.1L109.2 47.1Q108.6 47.1 108.2 46.9Q107.8 46.7 107.5 46.4Q107.3 46.0 107.3 45.4L107.3 45.4Q107.3 45.0 107.5 44.7Q107.7 44.4 108.0 44.2Q108.3 44.1 108.7 44.0Q109.0 43.9 109.4 43.8L109.4 43.8Q109.9 43.8 110.2 43.7Q110.5 43.7 110.7 43.6Q110.8 43.5 110.8 43.3L110.8 43.3L110.8 43.3Q110.8 43.0 110.7 42.7Q110.6 42.5 110.3 42.4Q110.1 42.2 109.7 42.2L109.7 42.2Q109.3 42.2 109.0 42.4Q108.7 42.5 108.6 42.7Q108.4 42.9 108.3 43.0L108.3 43.0L107.5 42.8Q107.7 42.3 108.0 42.0Q108.4 41.7 108.8 41.6Q109.2 41.5 109.7 41.5L109.7 41.5Q109.9 41.5 110.3 41.5Q110.6 41.6 111.0 41.8Q111.3 42.0 111.5 42.4Q111.7 42.8 111.7 43.4L111.7 43.4L111.7 47L110.8 47L110.8 46.3L110.8 46.3Q110.7 46.4 110.5 46.7Q110.3 46.9 109.9 47.0Q109.6 47.1 109.2 47.1ZM109.3 46.4L109.3 46.4Q109.8 46.4 110.1 46.2Q110.5 46.0 110.6 45.7Q110.8 45.4 110.8 45.0L110.8 45.0L110.8 44.3Q110.8 44.3 110.6 44.4Q110.4 44.4 110.2 44.5Q109.9 44.5 109.7 44.5Q109.5 44.6 109.4 44.6L109.4 44.6Q109.1 44.6 108.8 44.7Q108.5 44.8 108.3 45.0Q108.2 45.2 108.2 45.5L108.2 45.5Q108.2 45.8 108.3 46.0Q108.5 46.2 108.7 46.3Q109.0 46.4 109.3 46.4ZM114.3 41.5L115.4 41.5L115.4 42.3L114.3 42.3L114.3 45.6Q114.3 46.0 114.4 46.1Q114.6 46.3 114.9 46.3L114.9 46.3Q115.0 46.3 115.1 46.3Q115.3 46.2 115.4 46.2L115.4 46.2L115.5 47.0Q115.4 47.0 115.2 47.0Q115.1 47.1 114.9 47.1L114.9 47.1Q114.2 47.1 113.8 46.7Q113.4 46.3 113.4 45.7L113.4 45.7L113.4 42.3L112.6 42.3L112.6 41.5L113.4 41.5L113.4 40.2L114.3 40.2L114.3 41.5ZM117.4 47L116.5 47L116.5 41.5L117.4 41.5L117.4 47ZM117.0 40.6L117.0 40.6Q116.7 40.6 116.5 40.5Q116.3 40.3 116.3 40.1L116.3 40.1Q116.3 39.8 116.5 39.7Q116.7 39.5 117.0 39.5L117.0 39.5Q117.2 39.5 117.4 39.7Q117.6 39.8 117.6 40.1L117.6 40.1Q117.6 40.3 117.4 40.5Q117.2 40.6 117.0 40.6ZM121.2 47.1L121.2 47.1Q120.4 47.1 119.9 46.8Q119.3 46.4 119.0 45.8Q118.7 45.1 118.7 44.3L118.7 44.3Q118.7 43.5 119.0 42.8Q119.3 42.2 119.9 41.8Q120.4 41.5 121.2 41.5L121.2 41.5Q121.9 41.5 122.5 41.8Q123.0 42.2 123.3 42.8Q123.7 43.5 123.7 44.3L123.7 44.3Q123.7 45.1 123.3 45.8Q123.0 46.4 122.5 46.8Q121.9 47.1 121.2 47.1ZM121.2 46.3L121.2 46.3Q121.7 46.3 122.1 46.0Q122.4 45.8 122.6 45.3Q122.8 44.8 122.8 44.3L122.8 44.3Q122.8 43.8 122.6 43.3Q122.4 42.8 122.1 42.5Q121.7 42.3 121.2 42.3L121.2 42.3Q120.6 42.3 120.3 42.5Q119.9 42.8 119.7 43.3Q119.6 43.8 119.6 44.3L119.6 44.3Q119.6 44.8 119.7 45.3Q119.9 45.8 120.3 46.0Q120.6 46.3 121.2 46.3ZM125.8 43.7L125.8 43.7L125.8 47L124.9 47L124.9 41.5L125.8 41.5L125.8 42.6Q126.0 42.0 126.4 41.8L126.4 41.8Q126.8 41.5 127.5 41.5L127.5 41.5Q128.0 41.5 128.4 41.7Q128.8 41.9 129.1 42.4Q129.3 42.8 129.3 43.5L129.3 43.5L129.3 47L128.4 47L128.4 43.6Q128.4 43.0 128.1 42.6Q127.8 42.3 127.2 42.3L127.2 42.3Q126.8 42.3 126.5 42.4Q126.2 42.6 126.0 42.9Q125.8 43.3 125.8 43.7Z M134.5 47L133.7 47L133.7 41.5L134.5 41.5L134.5 47ZM134.1 40.6L134.1 40.6Q133.8 40.6 133.7 40.5Q133.5 40.3 133.5 40.1L133.5 40.1Q133.5 39.8 133.7 39.7Q133.8 39.5 134.1 39.5L134.1 39.5Q134.4 39.5 134.5 39.7Q134.7 39.8 134.7 40.1L134.7 40.1Q134.7 40.3 134.5 40.5Q134.4 40.6 134.1 40.6ZM137.0 43.7L137.0 43.7L137.0 47L136.1 47L136.1 41.5L136.9 41.5L136.9 42.6Q137.2 42.0 137.5 41.8L137.5 41.8Q138.0 41.5 138.6 41.5L138.6 41.5Q139.1 41.5 139.6 41.7Q140.0 41.9 140.2 42.4Q140.4 42.8 140.4 43.5L140.4 43.5L140.4 47L139.6 47L139.6 43.6Q139.6 43.0 139.2 42.6Q138.9 42.3 138.3 42.3L138.3 42.3Q137.9 42.3 137.6 42.4Q137.3 42.6 137.1 42.9Q137.0 43.3 137.0 43.7Z M146.8 40.5L144.5 40.5L144.5 39.7L150.0 39.7L150.0 40.5L147.7 40.5L147.7 47L146.8 47L146.8 40.5ZM151.2 49.0L151.2 49.0L151.4 48.2L151.5 48.2Q151.7 48.3 152.0 48.3Q152.2 48.2 152.4 48.1Q152.5 47.9 152.7 47.5L152.7 47.5L152.8 47.0L150.7 41.5L151.7 41.5L152.9 44.8Q153.1 45.3 153.2 45.8L153.2 45.8Q153.2 46.0 153.3 46.2L153.3 46.2Q153.3 46.0 153.4 45.8L153.4 45.8Q153.5 45.3 153.7 44.8L153.7 44.8L154.9 41.5L155.8 41.5L153.4 47.8Q153.3 48.3 153.0 48.5Q152.8 48.8 152.5 48.9Q152.2 49.1 151.8 49.1L151.8 49.1Q151.6 49.1 151.4 49.0Q151.2 49.0 151.2 49.0ZM157.8 49.0L156.9 49.0L156.9 41.5L157.7 41.5L157.7 42.4L157.8 42.4Q157.9 42.3 158.1 42.0Q158.2 41.8 158.6 41.6Q158.9 41.5 159.4 41.5L159.4 41.5Q160.1 41.5 160.6 41.8Q161.1 42.2 161.4 42.8Q161.7 43.4 161.7 44.3L161.7 44.3Q161.7 45.2 161.4 45.8Q161.1 46.4 160.6 46.8Q160.1 47.1 159.4 47.1L159.4 47.1Q158.9 47.1 158.6 46.9Q158.3 46.8 158.1 46.5Q157.9 46.3 157.8 46.2L157.8 46.2L157.8 46.2L157.8 49.0ZM159.3 46.3L159.3 46.3Q159.8 46.3 160.1 46.1Q160.5 45.8 160.6 45.3Q160.8 44.8 160.8 44.3L160.8 44.3Q160.8 43.7 160.7 43.3Q160.5 42.8 160.1 42.5Q159.8 42.3 159.3 42.3L159.3 42.3Q158.8 42.3 158.4 42.5Q158.1 42.8 157.9 43.2Q157.7 43.7 157.7 44.3L157.7 44.3Q157.7 44.9 157.9 45.3Q158.1 45.8 158.4 46.1Q158.8 46.3 159.3 46.3ZM165.3 47.1L165.3 47.1Q164.5 47.1 163.9 46.8Q163.4 46.4 163.0 45.8Q162.7 45.2 162.7 44.3Q162.7 43.5 163.0 42.8Q163.3 42.2 163.9 41.8Q164.4 41.5 165.2 41.5L165.2 41.5Q165.6 41.5 166.0 41.6Q166.5 41.8 166.8 42.1Q167.2 42.4 167.4 42.9Q167.6 43.4 167.6 44.2L167.6 44.2L167.6 44.6L163.6 44.6Q163.6 45.1 163.8 45.5L163.8 45.5Q164.0 45.9 164.4 46.1Q164.8 46.3 165.3 46.3L165.3 46.3Q165.6 46.3 165.9 46.2Q166.1 46.2 166.3 46.0Q166.5 45.8 166.6 45.5L166.6 45.5L167.5 45.7Q167.3 46.1 167.0 46.5Q166.7 46.8 166.3 46.9Q165.9 47.1 165.3 47.1ZM163.6 43.8L163.6 43.8L166.7 43.8Q166.6 43.5 166.5 43.1L166.5 43.1Q166.3 42.7 166.0 42.5Q165.7 42.3 165.2 42.3Q164.7 42.3 164.3 42.5Q164.0 42.7 163.8 43.1L163.8 43.1Q163.6 43.5 163.6 43.8ZM171.3 47.1L171.3 47.1Q170.5 47.1 169.9 46.9Q169.3 46.6 169.0 46.2Q168.7 45.7 168.6 45.1L168.6 45.1L169.6 45.1Q169.6 45.5 169.8 45.8Q170.1 46.0 170.5 46.2Q170.8 46.3 171.3 46.3L171.3 46.3Q171.8 46.3 172.1 46.1Q172.5 46.0 172.8 45.7Q173.0 45.4 173.0 45.0L173.0 45.0Q173.0 44.7 172.8 44.4Q172.6 44.2 172.3 44.1Q171.9 43.9 171.6 43.8L171.6 43.8L170.7 43.6Q169.8 43.3 169.3 42.9Q168.8 42.4 168.8 41.7L168.8 41.7Q168.8 41.1 169.2 40.6Q169.5 40.1 170.1 39.9Q170.6 39.6 171.3 39.6L171.3 39.6Q172.0 39.6 172.6 39.9Q173.1 40.1 173.5 40.6Q173.8 41.0 173.8 41.6L173.8 41.6L172.9 41.6Q172.8 41.0 172.4 40.7Q171.9 40.4 171.3 40.4L171.3 40.4Q170.8 40.4 170.5 40.6Q170.1 40.8 169.9 41.0Q169.7 41.3 169.7 41.6L169.7 41.6Q169.7 42.0 170.0 42.2Q170.2 42.5 170.5 42.6Q170.9 42.7 171.1 42.8L171.1 42.8L171.8 43.0Q172.1 43.1 172.5 43.2Q172.8 43.4 173.2 43.6Q173.5 43.8 173.7 44.2Q173.9 44.5 173.9 45.0L173.9 45.0Q173.9 45.6 173.6 46.1Q173.3 46.6 172.7 46.8Q172.1 47.1 171.3 47.1ZM177.5 47.1L177.5 47.1Q176.7 47.1 176.2 46.8Q175.6 46.4 175.3 45.8Q175.0 45.1 175.0 44.3L175.0 44.3Q175.0 43.5 175.3 42.8Q175.6 42.2 176.2 41.8Q176.7 41.5 177.5 41.5L177.5 41.5Q177.9 41.5 178.2 41.6Q178.6 41.7 178.9 41.9Q179.1 42.1 179.4 42.3Q179.6 42.6 179.7 43.0L179.7 43.0L178.8 43.2Q178.8 43.0 178.6 42.8Q178.5 42.7 178.4 42.5Q178.2 42.4 178.0 42.3Q177.7 42.3 177.5 42.3L177.5 42.3Q176.9 42.3 176.6 42.5Q176.2 42.8 176.0 43.3Q175.9 43.8 175.9 44.3L175.9 44.3Q175.9 44.8 176.0 45.3Q176.2 45.8 176.6 46.0Q176.9 46.3 177.5 46.3L177.5 46.3Q177.7 46.3 178.0 46.3Q178.2 46.2 178.4 46.1Q178.6 45.9 178.7 45.7Q178.8 45.5 178.9 45.3L178.9 45.3L179.7 45.6Q179.6 45.9 179.4 46.2Q179.2 46.5 178.9 46.7Q178.6 46.9 178.2 47.0Q177.9 47.1 177.5 47.1ZM181.8 47L181.0 47L181.0 41.5L181.8 41.5L181.8 42.4L181.9 42.4Q182.0 42.0 182.4 41.7Q182.8 41.5 183.3 41.5L183.3 41.5Q183.4 41.5 183.5 41.5Q183.6 41.5 183.7 41.5L183.7 41.5L183.7 42.4Q183.7 42.4 183.5 42.3Q183.4 42.3 183.2 42.3L183.2 42.3Q182.8 42.3 182.5 42.5Q182.2 42.6 182.0 42.9Q181.8 43.2 181.8 43.6L181.8 43.6L181.8 47ZM185.6 47L184.7 47L184.7 41.5L185.6 41.5L185.6 47ZM185.2 40.6L185.2 40.6Q184.9 40.6 184.7 40.5Q184.6 40.3 184.6 40.1L184.6 40.1Q184.6 39.8 184.7 39.7Q184.9 39.5 185.2 39.5L185.2 39.5Q185.4 39.5 185.6 39.7Q185.8 39.8 185.8 40.1L185.8 40.1Q185.8 40.3 185.6 40.5Q185.4 40.6 185.2 40.6ZM188.0 49.0L187.1 49.0L187.1 41.5L188.0 41.5L188.0 42.4L188.1 42.4Q188.2 42.3 188.3 42.0Q188.5 41.8 188.8 41.6Q189.1 41.5 189.7 41.5L189.7 41.5Q190.4 41.5 190.9 41.8Q191.4 42.2 191.7 42.8Q192.0 43.4 192.0 44.3L192.0 44.3Q192.0 45.2 191.7 45.8Q191.4 46.4 190.9 46.8Q190.4 47.1 189.7 47.1L189.7 47.1Q189.2 47.1 188.8 46.9Q188.5 46.8 188.4 46.5Q188.2 46.3 188.1 46.2L188.1 46.2L188.0 46.2L188.0 49.0ZM189.5 46.3L189.5 46.3Q190.1 46.3 190.4 46.1Q190.7 45.8 190.9 45.3Q191.1 44.8 191.1 44.3L191.1 44.3Q191.1 43.7 190.9 43.3Q190.7 42.8 190.4 42.5Q190.1 42.3 189.5 42.3L189.5 42.3Q189.0 42.3 188.7 42.5Q188.4 42.8 188.2 43.2Q188.0 43.7 188.0 44.3L188.0 44.3Q188.0 44.9 188.2 45.3Q188.4 45.8 188.7 46.1Q189.0 46.3 189.5 46.3ZM194.3 41.5L195.4 41.5L195.4 42.3L194.3 42.3L194.3 45.6Q194.3 46.0 194.4 46.1Q194.6 46.3 194.9 46.3L194.9 46.3Q195.0 46.3 195.1 46.3Q195.3 46.2 195.4 46.2L195.4 46.2L195.6 47.0Q195.4 47.0 195.3 47.0Q195.1 47.1 194.9 47.1L194.9 47.1Q194.2 47.1 193.8 46.7Q193.4 46.3 193.4 45.7L193.4 45.7L193.4 42.3L192.6 42.3L192.6 41.5L193.4 41.5L193.4 40.2L194.3 40.2L194.3 41.5Z "/></g><defs><clipPath id="satori_bc-id-2"><path x="342" y="22" width="75" height="22" d="M347,22 h65 a5,5 0 0 1 5,5 v12 a5,5 0 0 1 -5,5 h-65 a5,5 0 0 1 -5,-5 v-12 a5,5 0 0 1 5,-5"/></clipPath></defs><mask id="satori_om-id-2"><rect x="343" y="23" width="73" height="20" fill="#fff"/><path width="75" height="22" fill="none" stroke="#000" stroke-width="2" d="M343.464,23.464 A5,5 0 0 1 347,22 h65 a5,5 0 0 1 5,5 v12 a5,5 0 0 1 -5,5 h-65 a5,5 0 0 1 -5,-5 v-12 A5,5 0 0 1 343.464,23.464"/></mask><path x="342" y="22" width="75" height="22" fill="rgba(255,59,59,0.08)" d="M347,22 h65 a5,5 0 0 1 5,5 v12 a5,5 0 0 1 -5,5 h-65 a5,5 0 0 1 -5,-5 v-12 a5,5 0 0 1 5,-5"/><path width="75" height="22" clip-path="url(#satori_bc-id-2)" fill="none" stroke="rgba(255,77,77,0.28)" stroke-width="2" d="M343.464,23.464 A5,5 0 0 1 347,22 h65 a5,5 0 0 1 5,5 v12 a5,5 0 0 1 -5,5 h-65 a5,5 0 0 1 -5,-5 v-12 A5,5 0 0 1 343.464,23.464"/><g  ><path fill="#F03242" d="M354.6 31.0L352.4 31.0L352.4 29.7L358.3 29.7L358.3 31.0L356.1 31.0L356.1 37L354.6 37L354.6 31.0ZM359.3 38.9L359.3 38.9L359.6 37.8L359.8 37.9Q360.1 38.0 360.3 37.9Q360.5 37.9 360.7 37.7Q360.8 37.6 360.8 37.3L360.8 37.3L360.9 37.0L358.8 31.5L360.4 31.5L361.3 34.4Q361.5 34.9 361.6 35.4L361.6 35.4Q361.6 35.6 361.6 35.8L361.6 35.8Q361.7 35.6 361.7 35.4L361.7 35.4Q361.9 34.9 362.0 34.4L362.0 34.4L363.0 31.5L364.5 31.5L362.2 37.6Q362.1 38.1 361.8 38.4Q361.5 38.7 361.2 38.9Q360.8 39.1 360.2 39.1L360.2 39.1Q359.9 39.1 359.7 39.0Q359.4 39.0 359.3 38.9ZM366.8 39.0L365.3 39.0L365.3 31.5L366.8 31.5L366.8 32.5L366.8 32.5Q366.9 32.2 367.1 32.0Q367.3 31.8 367.6 31.6Q367.9 31.5 368.4 31.5L368.4 31.5Q369.0 31.5 369.5 31.8Q370.0 32.1 370.3 32.7Q370.6 33.3 370.6 34.3L370.6 34.3Q370.6 35.2 370.3 35.8Q370.0 36.4 369.5 36.8Q369.0 37.1 368.4 37.1L368.4 37.1Q367.9 37.1 367.6 36.9Q367.3 36.8 367.1 36.6Q366.9 36.3 366.8 36.1L366.8 36.1L366.8 36.1L366.8 39.0ZM367.9 35.9L367.9 35.9Q368.3 35.9 368.6 35.7Q368.8 35.5 369.0 35.1Q369.1 34.8 369.1 34.3L369.1 34.3Q369.1 33.8 369.0 33.4Q368.8 33.1 368.6 32.9Q368.3 32.6 367.9 32.6L367.9 32.6Q367.6 32.6 367.3 32.8Q367.0 33.0 366.9 33.4Q366.8 33.8 366.8 34.3L366.8 34.3Q366.8 34.8 366.9 35.1Q367.0 35.5 367.3 35.7Q367.6 35.9 367.9 35.9ZM374.1 37.1L374.1 37.1Q373.3 37.1 372.6 36.8Q372.0 36.4 371.7 35.8Q371.4 35.2 371.4 34.3L371.4 34.3Q371.4 33.5 371.7 32.8Q372.0 32.2 372.6 31.8Q373.2 31.5 374.0 31.5L374.0 31.5Q374.6 31.5 375.0 31.6Q375.5 31.8 375.8 32.2Q376.2 32.5 376.4 33.0Q376.6 33.5 376.6 34.2L376.6 34.2L376.6 34.7L372.8 34.7Q372.9 35.1 373.0 35.4L373.0 35.4Q373.2 35.7 373.4 35.8Q373.7 36.0 374.1 36.0L374.1 36.0Q374.4 36.0 374.6 35.9Q374.8 35.9 374.9 35.7Q375.1 35.6 375.2 35.4L375.2 35.4L376.5 35.6Q376.4 36.1 376.0 36.4Q375.7 36.7 375.2 36.9Q374.7 37.1 374.1 37.1ZM372.9 33.7L372.9 33.7L375.2 33.7Q375.1 33.5 375.1 33.2L375.1 33.2Q374.9 32.9 374.7 32.7Q374.4 32.6 374.0 32.6L374.0 32.6Q373.7 32.6 373.4 32.8Q373.1 32.9 373.0 33.2L373.0 33.2Q372.9 33.5 372.9 33.7ZM380.3 37.1L380.3 37.1Q379.4 37.1 378.8 36.8Q378.1 36.6 377.8 36.0Q377.4 35.5 377.4 34.7L377.4 34.7L378.8 34.7Q378.9 35.1 379.0 35.4Q379.2 35.6 379.5 35.7Q379.9 35.8 380.3 35.8L380.3 35.8Q380.7 35.8 381.0 35.7Q381.3 35.6 381.4 35.4Q381.6 35.2 381.6 34.9L381.6 34.9Q381.6 34.7 381.4 34.5Q381.3 34.3 381.0 34.2Q380.7 34.1 380.3 34.0L380.3 34.0L379.5 33.8Q378.6 33.6 378.1 33.1Q377.6 32.6 377.6 31.8L377.6 31.8Q377.6 31.2 377.9 30.7Q378.3 30.2 378.9 29.9Q379.5 29.6 380.3 29.6L380.3 29.6Q381.1 29.6 381.7 29.9Q382.3 30.2 382.6 30.7Q383.0 31.2 383.0 31.8L383.0 31.8L381.6 31.8Q381.5 31.4 381.2 31.1Q380.8 30.9 380.3 30.9L380.3 30.9Q379.9 30.9 379.6 31.0Q379.4 31.1 379.2 31.3Q379.1 31.5 379.1 31.7L379.1 31.7Q379.1 32.0 379.3 32.2Q379.4 32.3 379.7 32.5Q380.0 32.6 380.3 32.6L380.3 32.6L380.9 32.8Q381.4 32.9 381.8 33.1Q382.2 33.3 382.5 33.5Q382.8 33.8 382.9 34.1Q383.1 34.5 383.1 34.9L383.1 34.9Q383.1 35.6 382.8 36.1Q382.4 36.6 381.8 36.8Q381.2 37.1 380.3 37.1ZM386.6 37.1L386.6 37.1Q385.7 37.1 385.1 36.8Q384.5 36.4 384.2 35.8Q383.9 35.1 383.9 34.3L383.9 34.3Q383.9 33.4 384.2 32.8Q384.5 32.2 385.1 31.8Q385.7 31.5 386.6 31.5L386.6 31.5Q387.1 31.5 387.5 31.6Q387.9 31.7 388.2 32.0Q388.5 32.2 388.7 32.5Q388.9 32.9 389.0 33.3L389.0 33.3L387.6 33.5Q387.6 33.3 387.5 33.2Q387.4 33.0 387.3 32.9Q387.1 32.8 387.0 32.7Q386.8 32.6 386.6 32.6L386.6 32.6Q386.2 32.6 385.9 32.8Q385.7 33.0 385.5 33.4Q385.4 33.8 385.4 34.3L385.4 34.3Q385.4 34.8 385.5 35.1Q385.7 35.5 385.9 35.7Q386.2 36.0 386.6 36.0L386.6 36.0Q386.8 36.0 387.0 35.9Q387.1 35.8 387.3 35.7Q387.4 35.6 387.5 35.4Q387.6 35.2 387.6 35.0L387.6 35.0L389.0 35.3Q388.9 35.7 388.7 36.0Q388.5 36.4 388.2 36.6Q387.9 36.9 387.5 37.0Q387.1 37.1 386.6 37.1ZM391.5 37L390.0 37L390.0 31.5L391.4 31.5L391.4 32.5L391.5 32.5Q391.6 32.0 392.0 31.7Q392.3 31.5 392.8 31.5L392.8 31.5Q392.9 31.5 393.0 31.5Q393.2 31.5 393.3 31.5L393.3 31.5L393.3 32.8Q393.2 32.8 393.0 32.8Q392.8 32.8 392.6 32.8L392.6 32.8Q392.3 32.8 392.0 32.9Q391.8 33.0 391.6 33.3Q391.5 33.6 391.5 33.9L391.5 33.9L391.5 37ZM395.5 37L394.1 37L394.1 31.5L395.5 31.5L395.5 37ZM394.8 30.8L394.8 30.8Q394.5 30.8 394.3 30.6Q394.0 30.4 394.0 30.1L394.0 30.1Q394.0 29.8 394.3 29.5Q394.5 29.3 394.8 29.3L394.8 29.3Q395.1 29.3 395.4 29.5Q395.6 29.8 395.6 30.1L395.6 30.1Q395.6 30.4 395.4 30.6Q395.1 30.8 394.8 30.8ZM398.3 39.0L396.8 39.0L396.8 31.5L398.2 31.5L398.2 32.5L398.3 32.5Q398.4 32.2 398.6 32.0Q398.8 31.8 399.1 31.6Q399.4 31.5 399.9 31.5L399.9 31.5Q400.5 31.5 401.0 31.8Q401.5 32.1 401.8 32.7Q402.1 33.3 402.1 34.3L402.1 34.3Q402.1 35.2 401.8 35.8Q401.5 36.4 401.0 36.8Q400.5 37.1 399.9 37.1L399.9 37.1Q399.4 37.1 399.1 36.9Q398.8 36.8 398.6 36.6Q398.4 36.3 398.3 36.1L398.3 36.1L398.3 36.1L398.3 39.0ZM399.4 35.9L399.4 35.9Q399.8 35.9 400.0 35.7Q400.3 35.5 400.4 35.1Q400.6 34.8 400.6 34.3L400.6 34.3Q400.6 33.8 400.4 33.4Q400.3 33.1 400.0 32.9Q399.8 32.6 399.4 32.6L399.4 32.6Q399.0 32.6 398.8 32.8Q398.5 33.0 398.4 33.4Q398.2 33.8 398.2 34.3L398.2 34.3Q398.2 34.8 398.4 35.1Q398.5 35.5 398.8 35.7Q399.0 35.9 399.4 35.9ZM404.8 31.5L405.8 31.5L405.8 32.7L404.8 32.7L404.8 35.4Q404.8 35.7 404.9 35.8Q405.0 35.9 405.3 35.9L405.3 35.9Q405.4 35.9 405.5 35.9Q405.7 35.9 405.8 35.8L405.8 35.8L406.0 36.9Q405.7 37.0 405.5 37.0Q405.2 37.1 405.0 37.1L405.0 37.1Q404.2 37.1 403.8 36.7Q403.3 36.3 403.3 35.5L403.3 35.5L403.3 32.7L402.6 32.7L402.6 31.5L403.3 31.5L403.3 30.2L404.8 30.2L404.8 31.5Z "/></g></svg>